#define ball_width 120#define ball_height 120static char ball_bits[] = {   0xff, 0xff, 0xff, 0xff, 0xff, 0xff, 0xff, 0xff, 0xff, 0xff, 0xff, 0xff,   0xff, 0xff, 0xff, 0xff, 0xff, 0xff, 0xff, 0xff, 0xff, 0xff, 0xff, 0xff,   0xff, 0xff, 0xff, 0xff, 0xff, 0xff, 0xff, 0xff, 0xff, 0xff, 0xff, 0xff,   0xff, 0xff, 0xff, 0xff, 0xff, 0xff, 0xff, 0xff, 0xff, 0xff, 0xff, 0xff,   0xff, 0xff, 0xff, 0xff, 0xff, 0xff, 0xff, 0xff, 0xff, 0xff, 0xff, 0xff,   0xff, 0xff, 0xff, 0xff, 0xff, 0xff, 0xff, 0xff, 0xff, 0xff, 0xff, 0xff,   0xff, 0xff, 0xff, 0xff, 0xff, 0xff, 0xff, 0xff, 0xff, 0xff, 0xff, 0xff,   0xff, 0xff, 0xff, 0xff, 0xff, 0xff, 0xff, 0xff, 0xff, 0xff, 0xff, 0xff,   0xff, 0xff, 0xff, 0xff, 0xff, 0xff, 0xff, 0xff, 0xff, 0xff, 0xff, 0xff,   0xff, 0xff, 0xff, 0xff, 0xff, 0xff, 0xff, 0xff, 0xff, 0xff, 0xff, 0xff,   0xff, 0xff, 0xff, 0xff, 0xff, 0xff, 0xff, 0xff, 0xff, 0xff, 0xff, 0xff,   0xff, 0xff, 0xff, 0xff, 0xff, 0xff, 0xff, 0xff, 0xff, 0xff, 0xff, 0xff,   0xff, 0xff, 0xff, 0xff, 0xff, 0xff, 0xff, 0xff, 0xff, 0xff, 0xff, 0xff,   0xff, 0xff, 0xff, 0xff, 0xff, 0xff, 0xff, 0xff, 0xff, 0xff, 0xff, 0xff,   0xff, 0xff, 0xff, 0xff, 0xff, 0xff, 0xff, 0xff, 0xff, 0xff, 0xff, 0xff,   0xff, 0xff, 0xff, 0xff, 0xff, 0xff, 0xff, 0xff, 0xff, 0xff, 0xff, 0xff,   0xff, 0xff, 0xff, 0xff, 0xff, 0xff, 0xff, 0xff, 0xff, 0xff, 0xff, 0xff,   0xff, 0xff, 0xff, 0xff, 0xff, 0xff, 0xff, 0xff, 0xff, 0xff, 0xff, 0xff,   0xff, 0xff, 0xff, 0xff, 0xff, 0xff, 0xff, 0xff, 0xff, 0xff, 0xff, 0xff,   0xff, 0xff, 0xff, 0xff, 0xff, 0xff, 0xff, 0xff, 0xff, 0xff, 0xff, 0xff,   0xff, 0xff, 0xff, 0xff, 0xff, 0xff, 0xff, 0xff, 0xff, 0xff, 0xff, 0xff,   0xff, 0xff, 0xff, 0xff, 0xff, 0xff, 0xff, 0xff, 0xff, 0xff, 0xff, 0xff,   0xff, 0xff, 0xff, 0xff, 0xff, 0xff, 0xff, 0xff, 0xff, 0xff, 0xff, 0xff,   0xff, 0xff, 0xff, 0xff, 0xff, 0xff, 0xff, 0xff, 0xff, 0xff, 0xff, 0xff,   0xff, 0xff, 0xff, 0xff, 0xff, 0xff, 0xff, 0xff, 0xff, 0xff, 0xff, 0xff,   0xff, 0xff, 0xff, 0xff, 0xff, 0xff, 0x1f, 0x00, 0xff, 0xff, 0xff, 0xff,   0xff, 0xff, 0xff, 0xff, 0xff, 0xff, 0xff, 0xff, 0xff, 0xe0, 0xff, 0xe0,   0xff, 0xff, 0xff, 0xff, 0xff, 0xff, 0xff, 0xff, 0xff, 0xff, 0xff, 0x3f,   0xff, 0xff, 0x9f, 0xff, 0xff, 0xff, 0xff, 0xff, 0xff, 0xff, 0xff, 0xff,   0xff, 0xff, 0xc7, 0xff, 0xff, 0x7f, 0xfc, 0xff, 0xff, 0xff, 0xff, 0xff,   0xff, 0xff, 0xff, 0xff, 0xff, 0xf9, 0xff, 0xff, 0xff, 0xf3, 0xff, 0xff,   0xff, 0xff, 0xff, 0xff, 0xff, 0xff, 0xff, 0xff, 0xfe, 0xff, 0xff, 0xff,   0xef, 0xff, 0xff, 0xff, 0xff, 0xff, 0xff, 0xff, 0xff, 0xff, 0x3f, 0xff,   0xff, 0xff, 0xff, 0x9f, 0xff, 0xff, 0xff, 0xff, 0xff, 0xff, 0xff, 0xff,   0xff, 0xdf, 0xff, 0xff, 0xff, 0xff, 0x7f, 0xff, 0xff, 0xff, 0xff, 0xff,   0xff, 0xff, 0xff, 0xff, 0xef, 0xff, 0xff, 0xff, 0xff, 0xff, 0xfe, 0xff,   0xff, 0xff, 0xff, 0xff, 0xff, 0xff, 0xff, 0xf3, 0xff, 0xff, 0xe0, 0xff,   0xff, 0xf9, 0xff, 0xff, 0xff, 0xff, 0xff, 0xff, 0xff, 0xff, 0xfd, 0xff,   0x1f, 0x1f, 0xff, 0xff, 0xf7, 0xff, 0xff, 0xff, 0xff, 0xff, 0xff, 0xff,   0xff, 0xfe, 0xff, 0xe7, 0xff, 0xfc, 0xff, 0xef, 0xff, 0xff, 0xff, 0xff,   0xff, 0xff, 0xff, 0xff, 0xfe, 0xff, 0xfb, 0xff, 0xfb, 0xff, 0xef, 0xff,   0xff, 0xff, 0xff, 0xff, 0xff, 0xff, 0x7f, 0xff, 0xff, 0xfc, 0xff, 0xe7,   0xff, 0xdf, 0xff, 0xff, 0xff, 0xff, 0xff, 0xff, 0xff, 0xbf, 0xff, 0xff,   0xfe, 0xff, 0xef, 0xff, 0xbf, 0xff, 0xff, 0xff, 0xff, 0xff, 0xff, 0xff,   0xdf, 0xff, 0x7f, 0xf7, 0xff, 0xdf, 0xff, 0x7f, 0xff, 0xff, 0xff, 0xff,   0xff, 0xff, 0xff, 0xdf, 0xff, 0xbf, 0xff, 0xfb, 0xbf, 0xff, 0x7f, 0xff,   0xff, 0xff, 0xff, 0xff, 0xff, 0xff, 0xef, 0xff, 0xbf, 0x7f, 0xc0, 0xbf,   0xff, 0xff, 0xfe, 0xff, 0xff, 0xff, 0xff, 0xff, 0xff, 0xf7, 0xff, 0x9f,   0x3f, 0x80, 0x7f, 0xff, 0xff, 0xfd, 0xff, 0xff, 0xff, 0xff, 0xff, 0xff,   0xf7, 0xff, 0xdf, 0x3f, 0x80, 0x7f, 0xff, 0xff, 0xfd, 0xff, 0xff, 0xff,   0xff, 0xff, 0xff, 0xfb, 0xff, 0xdf, 0x3b, 0x84, 0x7f, 0xff, 0xff, 0xfb,   0xff, 0xff, 0xff, 0xff, 0xff, 0xff, 0xfb, 0xff, 0xef, 0x1f, 0x04, 0xff,   0xfe, 0xff, 0xfb, 0xff, 0xff, 0xff, 0xff, 0xff, 0xff, 0xfb, 0xff, 0xef,   0x3f, 0x84, 0xff, 0xfe, 0xff, 0xfb, 0xff, 0xff, 0xff, 0xff, 0xff, 0xff,   0xfd, 0xff, 0xef, 0x3f, 0x80, 0xff, 0xfe, 0xff, 0xf7, 0xff, 0xff, 0xff,   0xff, 0xff, 0xff, 0xfd, 0xff, 0xef, 0x3f, 0x80, 0xff, 0xfe, 0xff, 0xf7,   0xff, 0xff, 0xff, 0xff, 0xff, 0xff, 0xfe, 0xff, 0x6f, 0x7b, 0xc0, 0xff,   0xfe, 0xff, 0xef, 0xff, 0xff, 0xff, 0xff, 0xff, 0xff, 0xfe, 0xff, 0xdf,   0xfb, 0xfb, 0x7f, 0xff, 0xff, 0xef, 0xff, 0xff, 0xff, 0xff, 0xff, 0xff,   0xfe, 0xff, 0xdf, 0xff, 0xff, 0x7f, 0xff, 0xff, 0xef, 0xff, 0xff, 0xff,   0xff, 0xff, 0xff, 0xfe, 0xff, 0xdf, 0xff, 0xff, 0x7f, 0xff, 0xff, 0xef,   0xff, 0xff, 0xff, 0xff, 0xff, 0xff, 0xbe, 0xff, 0xbf, 0xff, 0xff, 0xbf,   0xff, 0xff, 0xef, 0xff, 0xff, 0xff, 0xff, 0xff, 0x7f, 0xf8, 0xff, 0xbf,   0xdf, 0xff, 0xbf, 0xff, 0xff, 0xdf, 0xff, 0xff, 0xff, 0xff, 0xff, 0x7f,   0x87, 0xff, 0x7f, 0xf6, 0xff, 0xde, 0xff, 0xff, 0xdf, 0xff, 0xff, 0xff,   0xff, 0xff, 0x7f, 0xf7, 0xff, 0xff, 0xfe, 0xff, 0xef, 0xff, 0xff, 0xdf,   0xff, 0xff, 0xff, 0xff, 0xff, 0x7f, 0xf7, 0xff, 0xff, 0xfc, 0xae, 0xe7,   0xff, 0xff, 0xdf, 0xff, 0xff, 0xff, 0xff, 0xff, 0x7f, 0xf3, 0xff, 0xff,   0xdb, 0xff, 0xfb, 0xff, 0xff, 0xdf, 0xff, 0xff, 0xff, 0xff, 0xff, 0x7f,   0xef, 0xff, 0xff, 0xa7, 0xff, 0xfc, 0xff, 0xfb, 0xdf, 0xff, 0xff, 0xff,   0xff, 0xff, 0x7f, 0xeb, 0xff, 0xff, 0x1f, 0x1f, 0xff, 0xff, 0xfb, 0xdf,   0xff, 0xff, 0xff, 0xff, 0xff, 0x7f, 0xff, 0xff, 0xff, 0xff, 0xe0, 0xff,   0xff, 0xfb, 0xdf, 0xff, 0xff, 0xff, 0xff, 0xff, 0x7f, 0xfb, 0xef, 0xff,   0xff, 0xff, 0xff, 0xff, 0xfb, 0xdf, 0xff, 0xff, 0xff, 0xff, 0xff, 0x7f,   0xbf, 0xef, 0xff, 0xff, 0xff, 0xff, 0xff, 0xfb, 0xdf, 0xff, 0xff, 0xff,   0xff, 0xff, 0x7f, 0xbf, 0xff, 0xff, 0xff, 0xff, 0xff, 0xff, 0xfb, 0xdf,   0xff, 0xff, 0xff, 0xff, 0xff, 0xff, 0xb6, 0xef, 0xff, 0xff, 0xff, 0xff,   0xff, 0xff, 0xef, 0xff, 0xff, 0xff, 0xff, 0xff, 0xff, 0xfe, 0xff, 0xff,   0xff, 0xff, 0xff, 0xff, 0xf7, 0xee, 0xff, 0xff, 0xff, 0xff, 0xff, 0xff,   0xf6, 0xf7, 0xff, 0xff, 0xff, 0xff, 0xff, 0x0f, 0xef, 0xff, 0xff, 0xff,   0xff, 0xff, 0xff, 0xfe, 0xfb, 0xff, 0xff, 0xff, 0xff, 0xff, 0xef, 0xed,   0xff, 0xff, 0xff, 0xff, 0xff, 0xff, 0xee, 0xff, 0xff, 0xff, 0xff, 0xff,   0xff, 0xf7, 0xef, 0xff, 0xff, 0xff, 0xff, 0xff, 0xff, 0xfd, 0xfb, 0xff,   0xff, 0xff, 0xff, 0xff, 0xff, 0xf5, 0xff, 0xff, 0xff, 0xff, 0xff, 0xff,   0xdd, 0xff, 0xf9, 0xff, 0xff, 0xff, 0xff, 0xfb, 0xf7, 0xff, 0xff, 0xff,   0xff, 0xff, 0xff, 0xfb, 0xfd, 0xcf, 0xff, 0xff, 0xff, 0xf0, 0xfd, 0xf9,   0xff, 0xff, 0xff, 0xff, 0xff, 0xff, 0xbb, 0x7f, 0xff, 0xff, 0xff, 0x7f,   0x3f, 0xff, 0xfa, 0xff, 0xff, 0xff, 0xff, 0xff, 0xff, 0xfb, 0xd9, 0xff,   0xff, 0xff, 0xff, 0xff, 0xff, 0xfa, 0xff, 0xff, 0xff, 0xff, 0xff, 0xff,   0xf7, 0xcd, 0xff, 0xff, 0xff, 0xbf, 0xff, 0xff, 0xfc, 0xff, 0xff, 0xff,   0xff, 0xff, 0xff, 0xf7, 0xfd, 0xff, 0xff, 0x7f, 0xff, 0xff, 0xff, 0xfc,   0xff, 0xff, 0xff, 0xff, 0xff, 0xff, 0xef, 0xfd, 0xbf, 0xff, 0xd7, 0xff,   0xff, 0xff, 0xfe, 0xff, 0xff, 0xff, 0xff, 0xff, 0xff, 0xdf, 0xff, 0x7f,   0xff, 0xff, 0xff, 0xff, 0x7f, 0xff, 0xff, 0xff, 0xff, 0xff, 0xff, 0xff,   0xdf, 0xed, 0x7f, 0xff, 0xfd, 0xff, 0xff, 0x7f, 0xff, 0xff, 0xff, 0xff,   0xff, 0xff, 0xff, 0xbf, 0xeb, 0x7f, 0xff, 0xde, 0xff, 0xff, 0xbf, 0xff,   0xff, 0xff, 0xff, 0xff, 0xff, 0xff, 0x7f, 0xff, 0xff, 0xfe, 0xbd, 0xff,   0xff, 0xdf, 0xff, 0xff, 0xff, 0xff, 0xff, 0xff, 0xff, 0xff, 0xfe, 0xff,   0xfd, 0xfd, 0xff, 0xff, 0xef, 0xff, 0xff, 0xff, 0xff, 0xff, 0xff, 0xff,   0xff, 0x26, 0xff, 0xfb, 0x7d, 0xff, 0xff, 0xef, 0xff, 0xff, 0xff, 0xff,   0xff, 0xff, 0xff, 0xff, 0xed, 0xff, 0xff, 0xfe, 0x98, 0xff, 0xf7, 0xff,   0xff, 0xff, 0xff, 0xff, 0xff, 0xff, 0xff, 0xf3, 0xff, 0xff, 0xff, 0x7f,   0xff, 0xf9, 0xff, 0xff, 0xff, 0xff, 0xff, 0xff, 0xff, 0xff, 0xef, 0xff,   0xbf, 0xff, 0xff, 0xff, 0xfe, 0xff, 0xff, 0xff, 0xff, 0xff, 0xff, 0xff,   0xff, 0xdf, 0xff, 0xdf, 0xff, 0xff, 0x7f, 0xff, 0xff, 0xff, 0xff, 0xff,   0xff, 0xff, 0xff, 0xff, 0x3f, 0xfb, 0xff, 0xff, 0xff, 0x9e, 0xff, 0xff,   0xff, 0xff, 0xff, 0xff, 0xff, 0xff, 0xff, 0xff, 0xfe, 0xde, 0xff, 0xff,   0xef, 0xff, 0xff, 0xff, 0xff, 0xff, 0xff, 0xff, 0xff, 0xff, 0xff, 0xd9,   0xfb, 0xff, 0xff, 0xf3, 0xff, 0xff, 0xff, 0xff, 0xff, 0xff, 0xff, 0xff,   0xff, 0xff, 0xc7, 0xdf, 0xff, 0x7f, 0xfc, 0xff, 0xff, 0xff, 0xff, 0xff,   0xff, 0xff, 0xff, 0xff, 0xff, 0x3f, 0x5f, 0xff, 0x9f, 0xff, 0xff, 0xff,   0xff, 0xff, 0xff, 0xff, 0xff, 0xff, 0xff, 0xff, 0xff, 0x80, 0xfd, 0xe0,   0xff, 0xff, 0xff, 0xff, 0xff, 0xff, 0xff, 0xff, 0xff, 0xff, 0xff, 0xff,   0x1f, 0x00, 0xff, 0xff, 0xff, 0xff, 0xff, 0xff, 0xff, 0xff, 0xff, 0xff,   0xff, 0xff, 0xff, 0xff, 0xcf, 0xf3, 0xff, 0xff, 0xff, 0xff, 0xff, 0xff,   0xff, 0xff, 0xff, 0xff, 0xff, 0xff, 0xff, 0x0f, 0xf8, 0xff, 0xff, 0xff,   0xff, 0xff, 0xff, 0xff, 0xff, 0xff, 0xff, 0xff, 0xff, 0xff, 0x7f, 0xf1,   0xff, 0xff, 0xff, 0xff, 0xff, 0xff, 0xff, 0xff, 0xff, 0xff, 0xff, 0xff,   0xff, 0x7f, 0xf5, 0xff, 0xff, 0xff, 0xff, 0xff, 0xff, 0xff, 0xff, 0xff,   0xff, 0xff, 0xff, 0xff, 0xff, 0xf2, 0xff, 0xff, 0xff, 0xff, 0xff, 0xff,   0xff, 0xff, 0xff, 0xff, 0xff, 0xff, 0xff, 0xff, 0xe5, 0xff, 0xff, 0xff,   0xff, 0xff, 0xff, 0xff, 0xff, 0xff, 0xff, 0xff, 0xff, 0xff, 0xff, 0xe5,   0xff, 0xff, 0xff, 0xff, 0xff, 0xff, 0xff, 0xff, 0xff, 0xff, 0xff, 0xff,   0xff, 0xff, 0xd5, 0xff, 0xff, 0xff, 0xff, 0xff, 0xff, 0xff, 0xff, 0xff,   0xff, 0xff, 0xff, 0xff, 0xff, 0xd3, 0xff, 0xff, 0xff, 0xff, 0xff, 0xff,   0xff, 0xff, 0xff, 0xff, 0xff, 0xff, 0xff, 0xff, 0xcb, 0xff, 0xff, 0xff,   0xff, 0xff, 0xff, 0xff, 0xff, 0xff, 0xff, 0xff, 0xff, 0xff, 0xff, 0xaf,   0xff, 0xff, 0xff, 0xff, 0xff, 0xff, 0xff, 0xff, 0xff, 0xff, 0xff, 0xff,   0xff, 0xff, 0xab, 0xff, 0xff, 0xff, 0xff, 0xff, 0xff, 0xff, 0xff, 0xff,   0xff, 0xff, 0xff, 0xff, 0xff, 0xed, 0xff, 0xff, 0xff, 0xff, 0xff, 0xff,   0xff, 0xff, 0xff, 0xff, 0xff, 0xff, 0xff, 0xff, 0xb5, 0xff, 0xff, 0xff,   0xff, 0xff, 0xff, 0xff, 0xff, 0xff, 0xff, 0xff, 0xff, 0xff, 0xff, 0xbf,   0xff, 0xff, 0xff, 0xff, 0xff, 0xff, 0xff, 0xff, 0xff, 0xff, 0xff, 0xff,   0xff, 0xff, 0x75, 0xff, 0xff, 0xff, 0xff, 0xff, 0xff, 0xff, 0xff, 0xff,   0xff, 0xff, 0xff, 0xff, 0xff, 0x75, 0xff, 0xff, 0xff, 0xff, 0xff, 0xff,   0xff, 0xff, 0xff, 0xff, 0xff, 0xff, 0xff, 0xff, 0x76, 0xff, 0xff, 0xff,   0xff, 0xff, 0xff, 0xff, 0xff, 0xff, 0xff, 0xff, 0xff, 0xff, 0xff, 0x7a,   0xff, 0xff, 0xff, 0xff, 0xff, 0xff, 0xff, 0xff, 0xff, 0xff, 0xff, 0xff,   0xff, 0xff, 0x7a, 0xff, 0xff, 0xff, 0xff, 0xff, 0xff, 0xff, 0xff, 0xff,   0xff, 0xff, 0xff, 0xff, 0xff, 0x3e, 0xff, 0xff, 0xff, 0xff, 0xff, 0xff,   0xff, 0xff, 0xff, 0xff, 0xff, 0xff, 0xff, 0xff, 0xba, 0xff, 0xff, 0xff,   0xff, 0xff, 0xff, 0xff, 0xff, 0xff, 0xff, 0xff, 0xff, 0xff, 0x7f, 0xbe,   0xff, 0xff, 0xff, 0xff, 0xff, 0xff, 0xff, 0xff, 0xff, 0xff, 0xff, 0xff,   0xff, 0x7f, 0xdb, 0xff, 0xff, 0xff, 0xff, 0xff, 0xff, 0xff, 0xff, 0xff,   0xff, 0xff, 0xff, 0xff, 0x7f, 0xdd, 0xff, 0xff, 0xff, 0xff, 0xff, 0xff,   0xff, 0xff, 0xff, 0xff, 0xff, 0xff, 0xff, 0x5f, 0xdd, 0xff, 0xff, 0xff,   0xff, 0xff, 0xff, 0xff, 0xff, 0xff, 0xff, 0xff, 0xff, 0xff, 0xbf, 0xdc,   0xff, 0xff, 0xff, 0xff, 0xff, 0xff, 0xff, 0xff, 0xff, 0xff, 0xff, 0xff,   0xff, 0xbf, 0xdc, 0xff, 0xff, 0xff, 0xff, 0xff, 0xff, 0xff, 0xff, 0xff,   0xff, 0xff, 0xff, 0xff, 0xdf, 0xdc, 0xff, 0xff, 0xff, 0xff, 0xff, 0xff};